<mxfile host="Electron" modified="2024-07-19T13:34:11.765Z" agent="Mozilla/5.0 (Windows NT 10.0; Win64; x64) AppleWebKit/537.36 (KHTML, like Gecko) draw.io/24.2.5 Chrome/120.0.6099.109 Electron/28.1.0 Safari/537.36" etag="byvXyKpcWY6zFSwoxN6r" version="24.2.5" type="device">
  <diagram id="C5RBs43oDa-KdzZeNtuy" name="Page-1">
    <mxGraphModel dx="825" dy="486" grid="0" gridSize="9" guides="0" tooltips="1" connect="1" arrows="1" fold="1" page="1" pageScale="1" pageWidth="827" pageHeight="1169" math="0" shadow="0">
      <root>
        <mxCell id="WIyWlLk6GJQsqaUBKTNV-0" />
        <mxCell id="WIyWlLk6GJQsqaUBKTNV-1" parent="WIyWlLk6GJQsqaUBKTNV-0" />
        <mxCell id="_L7Bg2BUZCpdJTolOaum-0" value="Base" style="swimlane;align=center;verticalAlign=top;childLayout=stackLayout;horizontal=1;startSize=26;horizontalStack=0;resizeParent=1;resizeParentMax=0;resizeLast=0;collapsible=1;marginBottom=0;html=1;fillColor=#000000;strokeColor=#000000;spacing=0;spacingBottom=0;spacingTop=-3;fontFamily=Verdana;fontSize=9;fontColor=#FFFFFF;fontStyle=3" vertex="1" parent="WIyWlLk6GJQsqaUBKTNV-1">
          <mxGeometry x="612" y="297" width="78" height="102" as="geometry" />
        </mxCell>
        <mxCell id="_L7Bg2BUZCpdJTolOaum-1" value="- id: int" style="text;strokeColor=none;fillColor=none;align=left;verticalAlign=top;spacingLeft=4;spacingRight=4;overflow=hidden;rotatable=0;points=[[0,0.5],[1,0.5]];portConstraint=eastwest;html=1;spacing=0;spacingBottom=0;spacingTop=-1;fontFamily=Verdana;fontSize=9;" vertex="1" parent="_L7Bg2BUZCpdJTolOaum-0">
          <mxGeometry y="26" width="78" height="26" as="geometry" />
        </mxCell>
        <mxCell id="_L7Bg2BUZCpdJTolOaum-2" value="" style="line;strokeWidth=1;fillColor=none;align=left;verticalAlign=top;spacingTop=-3;spacingLeft=3;spacingRight=3;rotatable=0;labelPosition=right;points=[];portConstraint=eastwest;strokeColor=inherit;spacing=0;spacingBottom=0;fontFamily=Verdana;fontSize=9;" vertex="1" parent="_L7Bg2BUZCpdJTolOaum-0">
          <mxGeometry y="52" width="78" height="8" as="geometry" />
        </mxCell>
        <mxCell id="_L7Bg2BUZCpdJTolOaum-3" value="&lt;p style=&quot;line-height: 100%; font-size: 9px;&quot;&gt;&lt;/p&gt;&lt;div style=&quot;line-height: 110%; font-size: 9px;&quot;&gt;&lt;span style=&quot;background-color: initial; font-size: 9px;&quot;&gt;+ Base(id: int)&lt;/span&gt;&lt;/div&gt;+ getId(): int&lt;br style=&quot;font-size: 9px;&quot;&gt;+ setID(id:int)&lt;p style=&quot;font-size: 9px;&quot;&gt;&lt;/p&gt;" style="text;strokeColor=none;fillColor=none;align=left;verticalAlign=top;spacingLeft=4;spacingRight=4;overflow=hidden;rotatable=0;points=[[0,0.5],[1,0.5]];portConstraint=eastwest;html=1;spacing=0;spacingBottom=0;spacingTop=-12;fontFamily=Verdana;fontSize=9;" vertex="1" parent="_L7Bg2BUZCpdJTolOaum-0">
          <mxGeometry y="60" width="78" height="42" as="geometry" />
        </mxCell>
        <mxCell id="_L7Bg2BUZCpdJTolOaum-5" value="Word" style="swimlane;align=center;verticalAlign=top;childLayout=stackLayout;horizontal=1;startSize=26;horizontalStack=0;resizeParent=1;resizeParentMax=0;resizeLast=0;collapsible=1;marginBottom=0;html=1;spacing=0;spacingBottom=0;spacingTop=-3;fontFamily=Verdana;fontSize=9;fontStyle=3;strokeColor=default;swimlaneFillColor=default;fillColor=#000000;fontColor=#FFFFFF;" vertex="1" parent="WIyWlLk6GJQsqaUBKTNV-1">
          <mxGeometry x="135" y="111" width="250" height="130" as="geometry" />
        </mxCell>
        <mxCell id="_L7Bg2BUZCpdJTolOaum-6" value="- word: String&#xa;- pronounce: String" style="text;strokeColor=none;fillColor=none;align=left;verticalAlign=top;spacingLeft=4;spacingRight=4;overflow=hidden;rotatable=0;points=[[0,0.5],[1,0.5]];portConstraint=eastwest;html=1;spacing=0;spacingBottom=0;spacingTop=-2;fontFamily=Verdana;fontSize=9;" vertex="1" parent="_L7Bg2BUZCpdJTolOaum-5">
          <mxGeometry y="26" width="250" height="24" as="geometry" />
        </mxCell>
        <mxCell id="_L7Bg2BUZCpdJTolOaum-7" value="" style="line;strokeWidth=1;fillColor=none;align=left;verticalAlign=top;spacingTop=-3;spacingLeft=3;spacingRight=3;rotatable=0;labelPosition=right;points=[];portConstraint=eastwest;strokeColor=inherit;spacing=0;spacingBottom=0;fontFamily=Verdana;fontSize=9;" vertex="1" parent="_L7Bg2BUZCpdJTolOaum-5">
          <mxGeometry y="50" width="250" height="8" as="geometry" />
        </mxCell>
        <mxCell id="_L7Bg2BUZCpdJTolOaum-8" value="&#xa;+ Word(wordId: int, word: String, pronounce: String)&#xa;+ Word(resultSet: ResultSet)&amp;nbsp;&#xa;+ getWord(): String&amp;nbsp;&#xa;+ setWord(word: String): void&amp;nbsp;&#xa;+ getPronounce(): String&amp;nbsp;&#xa;+ setPronounce(pronounce: String): void&#xa;&#xa;" style="text;strokeColor=none;fillColor=none;align=left;verticalAlign=top;spacingLeft=4;spacingRight=4;overflow=hidden;rotatable=0;points=[[0,0.5],[1,0.5]];portConstraint=eastwest;html=1;spacing=0;spacingBottom=0;spacingTop=-15;fontFamily=Verdana;fontSize=9;" vertex="1" parent="_L7Bg2BUZCpdJTolOaum-5">
          <mxGeometry y="58" width="250" height="72" as="geometry" />
        </mxCell>
        <mxCell id="_L7Bg2BUZCpdJTolOaum-10" value="Explain" style="swimlane;align=center;verticalAlign=top;childLayout=stackLayout;horizontal=1;startSize=26;horizontalStack=0;resizeParent=1;resizeParentMax=0;resizeLast=0;collapsible=1;marginBottom=0;html=1;spacing=0;spacingBottom=0;spacingTop=-3;fontFamily=Verdana;fontSize=9;fontStyle=3;fontColor=#ffffff;fillColor=#000000;" vertex="1" parent="WIyWlLk6GJQsqaUBKTNV-1">
          <mxGeometry x="108" y="252" width="317" height="169" as="geometry" />
        </mxCell>
        <mxCell id="_L7Bg2BUZCpdJTolOaum-11" value="&#xa;- wordId: int&#xa;- type: String&#xa;- meaning: String  &#xa;&#xa;" style="text;strokeColor=none;fillColor=none;align=left;verticalAlign=top;spacingLeft=4;spacingRight=4;overflow=hidden;rotatable=0;points=[[0,0.5],[1,0.5]];portConstraint=eastwest;html=1;spacing=0;spacingBottom=0;spacingTop=-9;fontFamily=Verdana;fontSize=9;" vertex="1" parent="_L7Bg2BUZCpdJTolOaum-10">
          <mxGeometry y="26" width="317" height="41" as="geometry" />
        </mxCell>
        <mxCell id="_L7Bg2BUZCpdJTolOaum-12" value="" style="line;strokeWidth=1;fillColor=none;align=left;verticalAlign=top;spacingTop=-3;spacingLeft=3;spacingRight=3;rotatable=0;labelPosition=right;points=[];portConstraint=eastwest;strokeColor=inherit;spacing=0;spacingBottom=0;fontFamily=Verdana;fontSize=9;" vertex="1" parent="_L7Bg2BUZCpdJTolOaum-10">
          <mxGeometry y="67" width="317" height="8" as="geometry" />
        </mxCell>
        <mxCell id="_L7Bg2BUZCpdJTolOaum-13" value="+ Explain(explainId: int, wordId: int, type: String, meaning: String)&amp;nbsp;&#xa;+ Explain(resultSet: ResultSet)&amp;nbsp;&#xa;+ getWordId(): int&amp;nbsp;&#xa;+ setWordId(wordId: int): void&amp;nbsp;&#xa;+ getType(): String&amp;nbsp;&#xa;+ setType(type: String): void&amp;nbsp;&#xa;+ getMeaning(): String&amp;nbsp;&#xa;+ setMeaning(meaning: String): void&amp;nbsp;" style="text;strokeColor=none;fillColor=none;align=left;verticalAlign=top;spacingLeft=4;spacingRight=4;overflow=hidden;rotatable=0;points=[[0,0.5],[1,0.5]];portConstraint=eastwest;html=1;spacing=0;spacingBottom=0;spacingTop=-3;fontFamily=Verdana;fontSize=9;" vertex="1" parent="_L7Bg2BUZCpdJTolOaum-10">
          <mxGeometry y="75" width="317" height="94" as="geometry" />
        </mxCell>
        <mxCell id="_L7Bg2BUZCpdJTolOaum-14" value="Example" style="swimlane;align=center;verticalAlign=top;childLayout=stackLayout;horizontal=1;startSize=26;horizontalStack=0;resizeParent=1;resizeParentMax=0;resizeLast=0;collapsible=1;marginBottom=0;html=1;spacing=0;spacingBottom=0;spacingTop=-3;fontFamily=Verdana;fontSize=9;fontStyle=3;fillColor=#000000;fontColor=#FFFFFF;" vertex="1" parent="WIyWlLk6GJQsqaUBKTNV-1">
          <mxGeometry x="85" y="439" width="359" height="167" as="geometry" />
        </mxCell>
        <mxCell id="_L7Bg2BUZCpdJTolOaum-15" value="- explainId: int&#xa;- example: String&amp;nbsp;&#xa;- translate: String&amp;nbsp;&amp;nbsp;" style="text;strokeColor=none;fillColor=none;align=left;verticalAlign=top;spacingLeft=4;spacingRight=4;overflow=hidden;rotatable=0;points=[[0,0.5],[1,0.5]];portConstraint=eastwest;html=1;spacing=0;spacingBottom=0;spacingTop=-2;fontFamily=Verdana;fontSize=9;" vertex="1" parent="_L7Bg2BUZCpdJTolOaum-14">
          <mxGeometry y="26" width="359" height="39" as="geometry" />
        </mxCell>
        <mxCell id="_L7Bg2BUZCpdJTolOaum-16" value="" style="line;strokeWidth=1;fillColor=none;align=left;verticalAlign=top;spacingTop=-3;spacingLeft=3;spacingRight=3;rotatable=0;labelPosition=right;points=[];portConstraint=eastwest;strokeColor=inherit;spacing=0;spacingBottom=0;fontFamily=Verdana;fontSize=9;" vertex="1" parent="_L7Bg2BUZCpdJTolOaum-14">
          <mxGeometry y="65" width="359" height="8" as="geometry" />
        </mxCell>
        <mxCell id="_L7Bg2BUZCpdJTolOaum-17" value="+ Example(exampleId: int, explainId: int, example: String, translate: String)&amp;nbsp;&#xa;+ Example(resultSet: ResultSet)&amp;nbsp;&#xa;+ getExplainId(): int&#xa;+ setExplainId(explainId: int): void&#xa;+ getExample(): String&amp;nbsp;&#xa;+ setExample(example: String): void&#xa;+ getTranslate(): String&#xa;+ setTranslate(translate: String): void" style="text;strokeColor=none;fillColor=none;align=left;verticalAlign=top;spacingLeft=4;spacingRight=4;overflow=hidden;rotatable=0;points=[[0,0.5],[1,0.5]];portConstraint=eastwest;html=1;spacing=0;spacingBottom=0;spacingTop=-3;fontFamily=Verdana;fontSize=9;" vertex="1" parent="_L7Bg2BUZCpdJTolOaum-14">
          <mxGeometry y="73" width="359" height="94" as="geometry" />
        </mxCell>
        <mxCell id="_L7Bg2BUZCpdJTolOaum-26" value="Extends" style="endArrow=block;endSize=16;endFill=0;html=1;rounded=0;" edge="1" parent="WIyWlLk6GJQsqaUBKTNV-1">
          <mxGeometry width="160" relative="1" as="geometry">
            <mxPoint x="425" y="360" as="sourcePoint" />
            <mxPoint x="612" y="360" as="targetPoint" />
          </mxGeometry>
        </mxCell>
        <mxCell id="_L7Bg2BUZCpdJTolOaum-27" value="" style="endArrow=none;html=1;rounded=0;" edge="1" parent="WIyWlLk6GJQsqaUBKTNV-1">
          <mxGeometry width="50" height="50" relative="1" as="geometry">
            <mxPoint x="486" y="540" as="sourcePoint" />
            <mxPoint x="387" y="180" as="targetPoint" />
            <Array as="points">
              <mxPoint x="486" y="180" />
            </Array>
          </mxGeometry>
        </mxCell>
        <mxCell id="_L7Bg2BUZCpdJTolOaum-29" value="" style="endArrow=none;html=1;rounded=0;" edge="1" parent="WIyWlLk6GJQsqaUBKTNV-1">
          <mxGeometry width="50" height="50" relative="1" as="geometry">
            <mxPoint x="445" y="539" as="sourcePoint" />
            <mxPoint x="486" y="539" as="targetPoint" />
          </mxGeometry>
        </mxCell>
      </root>
    </mxGraphModel>
  </diagram>
</mxfile>
